<svg xmlns="http://www.w3.org/2000/svg" version="1.1" viewBox="362.92 431.88 29.15 29.7"> <g id="layer1"> <g style="fill:rgb(0,0,0); fill-opacity:1.0; stroke-linejoin: miter"> <path d="M364.11887,431.925C363.52322,431.95087,363.4507,431.96124,363.33676,432.07C363.228,432.17358,363.08298,432.474,363.026,432.72778C363.02084,432.75366,363.00012,432.80548,362.9794,432.83136C362.96384,432.86243,362.94833,433.09033,362.9535,433.33893C362.96384,433.66528,362.9846,433.8051,363.03638,433.83618C363.0778,433.86206,363.09335,433.91907,363.0778,433.96564C363.06226,434.00708,363.06744,434.0589,363.0985,434.0744C363.12442,434.09515,363.1348,434.1314,363.11404,434.1573C363.0985,434.18317,363.12442,434.27124,363.1762,434.34894C363.228,434.42664,363.26425,434.51465,363.2591,434.5509C363.2539,434.58197,363.29016,434.6856,363.34714,434.784C363.4041,434.87726,363.56467,435.188,363.7097,435.47284C363.84952,435.75775,364.04117,436.06848,364.12405,436.16174C364.2121,436.25494,364.2846,436.34302,364.2846,436.35333C364.2846,436.3637,364.34677,436.4414,364.41928,436.5191C364.5384,436.64343,364.6938,436.87128,365.14957,437.59644C366.15955,439.20203,366.49103,440.25342,366.27866,441.22717C366.17508,441.70367,366.02487,441.9937,365.47586,442.77582C365.25833,443.08655,364.90094,443.6615,364.6834,444.04474C364.3364,444.66107,364.2639,444.75952,364.1033,444.81647C363.91168,444.8838,363.7097,445.1117,363.61127,445.36035C363.5077,445.6452,363.4559,446.23047,363.5077,446.60858C363.7304,448.2815,363.94278,449.28632,364.23282,450.0891C364.36227,450.4361,365.04596,451.94336,365.40335,452.6529C365.6934,453.23303,365.7452,453.48682,365.62607,453.7458C365.5898,453.8286,365.58463,453.9063,365.6157,453.9685C365.6468,454.03064,365.63644,454.39838,365.57944,454.9992C365.41888,456.71356,365.42407,456.698,364.92685,456.6255C364.34158,456.53748,364.28976,456.5219,364.26907,456.43384C364.2535,456.38727,364.24316,456.41833,364.23798,456.5116C364.23282,456.70837,364.181,456.73944,363.68896,456.85858C363.40927,456.9259,363.29016,456.93628,363.1762,456.88965C363.0312,456.8379,362.93796,456.85858,362.93796,456.94147C362.93796,457.09686,364.79218,457.2315,365.7193,457.14343C366.0456,457.11237,366.3253,457.09686,366.34082,457.11755C366.35635,457.13306,366.2735,457.4076,366.1492,457.7287C366.02487,458.06537,365.92648,458.42273,365.9161,458.57294C365.91092,458.71283,365.85397,458.9148,365.79697,459.01324C365.68304,459.2204,365.61053,459.58295,365.6882,459.58295C365.7193,459.58295,365.7193,459.6192,365.68304,459.68134C365.65714,459.73834,365.63126,459.83154,365.63126,459.8885C365.63126,459.97656,365.66232,459.9973,365.78662,459.9973C365.89023,459.9973,365.94202,460.0232,365.94202,460.075C365.94202,460.1682,366.10257,460.1786,366.1906,460.0905C366.2424,460.0387,366.2683,460.0387,366.29938,460.0957C366.33047,460.14233,366.35635,460.14746,366.37708,460.10602C366.43405,460.018,366.52728,460.0387,366.49103,460.12677C366.38742,460.38055,366.3926,460.38574,366.53763,460.2563C366.6671,460.14233,366.6775,460.13715,366.6464,460.23035C366.6205,460.29767,366.69302,460.2511,366.83804,460.1112L367.06595,459.8885L367.04004,460.04907L367.01932,460.20447L367.16434,460.12158C367.24722,460.075,367.41812,459.90924,367.54764,459.75385C367.97232,459.2359,367.96713,459.2411,368.3763,459.23077C369.0186,459.2204,369.9716,458.88373,370.45844,458.4901C370.70187,458.29846,370.8676,458.23633,371.13693,458.23633C371.35965,458.23633,372.66486,458.055,372.8306,458.00323C372.9031,457.97736,372.9342,458.00842,372.96008,458.14307C372.9808,458.23633,373.04297,458.4124,373.09476,458.5315C373.27603,458.9096,373.69556,460.43237,373.6541,460.54114C373.6334,460.59808,373.6127,460.7224,373.6127,460.8208L373.6075,460.99695L374.1617,460.96063C374.70035,460.92438,374.71072,460.92957,374.62784,461.02283C374.51907,461.1419,373.92346,461.2921,373.56088,461.2921C373.29675,461.2921,373.23978,461.33356,373.36407,461.43713C373.44177,461.49933,374.42587,461.55627,375.57568,461.56665C376.6789,461.57703,378.4088,461.35944,378.4606,461.2041C378.47098,461.17303,378.30005,461.1419,377.9893,461.1264C377.47134,461.10046,377.31076,461.03314,377.3522,460.86743C377.38327,460.75348,377.3056,460.69135,377.26416,460.8053C377.24344,460.86743,377.16574,460.87775,376.93787,460.86743C376.7773,460.85706,376.63745,460.826,376.6271,460.8001C376.60638,460.73798,377.56973,460.44275,377.64743,460.48932C377.67334,460.50488,377.69922,460.48932,377.69922,460.44788C377.69922,460.33398,377.5853,460.30804,377.11914,460.30804C376.76175,460.30804,376.69962,460.29254,376.6789,460.21484C376.65817,460.13196,376.6012,460.12158,376.03665,460.14233C375.69998,460.15784,375.42032,460.14746,375.42032,460.12158C375.42032,460.0957,375.34778,459.7694,375.25974,459.40167C375.13544,458.87854,375.094,458.56775,375.07327,458.00842L375.05258,457.28845L375.24936,457.0865C375.4462,456.87927,376.56494,455.9677,377.29007,455.4239C377.66815,455.13898,377.8546,455.06134,377.8546,455.1856C377.8546,455.22705,377.9323,455.23743,378.0825,455.22186L378.3104,455.19598L378.2586,455.37207C378.1602,455.7243,378.30005,455.83307,378.65225,455.6673C378.75064,455.62067,378.8594,455.5896,378.90085,455.60516C378.9371,455.62067,378.98373,455.63104,379.00443,455.62585C379.02515,455.62585,379.08212,455.6725,379.12357,455.7398C379.1909,455.82788,379.22714,455.84344,379.30484,455.802C379.35666,455.77612,379.4188,455.70355,379.43433,455.6466C379.48096,455.50677,379.55862,455.51715,379.6156,455.6725C379.67776,455.83307,379.7244,455.83307,379.87457,455.6725C379.973,455.5689,380.0403,455.54303,380.2216,455.55334C380.41324,455.55853,380.47537,455.53265,380.63077,455.38245C380.73434,455.28406,380.91046,455.0354,381.0244,454.83344C381.2523,454.41907,381.3196,454.37762,381.89453,454.3155C382.04993,454.29993,382.21567,454.25336,382.26746,454.2119C382.33997,454.1446,382.3555,454.1601,382.40213,454.388C382.4332,454.5227,382.53162,454.8542,382.61966,455.12347C382.7336,455.45496,382.80612,455.81232,382.84756,456.24225C382.88382,456.58923,382.93042,456.90002,382.94595,456.9259C383.03918,457.0761,383.34995,457.1538,383.6866,457.12274C383.98184,457.0865,384.0181,457.09686,384.0181,457.1745C384.0181,457.2574,384.1165,457.26257,385.45798,457.2367C386.41098,457.22113,387.06876,457.18488,387.4106,457.12787C388.15125,457.0088,388.2134,456.99323,388.2134,456.91553C388.2134,456.84302,388.1616,456.84302,387.13608,456.91553C386.93408,456.9311,386.82532,456.92072,386.84085,456.88965C386.8564,456.85858,386.9082,456.8379,386.94446,456.8379C387.02213,456.8379,387.15164,456.64105,387.105,456.59442C387.08948,456.57886,387.04288,456.6048,386.99625,456.64624C386.9548,456.6928,386.8046,456.74463,386.66995,456.7602C386.53528,456.7757,386.36435,456.80157,386.28665,456.81195C386.0277,456.8534,386.01218,456.77057,386.02252,455.54816C386.02252,454.93182,386.03287,454.3828,386.03806,454.32587C386.04324,454.26892,386.03287,454.1394,386.01218,454.04095C385.98627,453.88562,386.01733,453.79236,386.2504,453.378C386.4783,452.96887,386.58707,452.83936,386.96518,452.51825C387.84567,451.7672,388.24966,451.28033,388.75723,450.3636C388.92297,450.06317,389.1457,449.6903,389.2493,449.5349C389.46683,449.20862,389.88635,448.31775,389.9692,448.00696C390.0987,447.48907,390.15048,446.74323,390.08316,446.23566C390.00027,445.61926,389.93814,445.39136,389.40985,443.7495C389.0162,442.51685,388.84012,442.0869,388.4672,441.3877C388.37915,441.222,388.32217,441.07178,388.3377,441.0562C388.35324,441.0407,388.42056,441.0407,388.4879,441.0614C388.58115,441.0821,388.664,441.20642,388.85046,441.59485C389.15604,442.2475,389.75687,443.50092,390.36285,444.74396C390.62183,445.2826,390.99472,445.98187,391.19156,446.2978C391.54373,446.87268,391.60074,446.96594,391.7613,447.3181C391.8597,447.53564,391.9633,447.5667,392.04614,447.4165C392.0876,447.33362,392.05133,447.19897,391.87006,446.75354C391.74576,446.448,391.50232,445.7384,391.3314,445.1842C390.9326,443.89972,390.3784,442.15942,390.21783,441.6881C390.14532,441.48615,389.93295,440.87494,389.74133,440.32593L389.38913,439.3263L389.45645,439.05182C389.5445,438.6789,389.50308,438.33704,389.32697,437.94342C389.20267,437.66888,389.0887,437.52905,388.63293,437.1147C388.00623,436.5398,387.72134,436.35852,387.6385,436.48285C387.59705,436.55017,387.57632,436.5398,387.48828,436.43622C387.4313,436.3689,387.3847,436.33783,387.3847,436.3689C387.3847,436.39996,387.27075,436.43622,387.1309,436.4569C386.91336,436.48804,386.8564,436.5191,386.71655,436.70557C386.6285,436.82465,386.50937,436.95416,386.45242,436.99042C386.39545,437.02667,386.34882,437.0888,386.34882,437.12506C386.34882,437.1665,386.29184,437.26495,386.2297,437.34778C386.1313,437.46173,386.09503,437.60156,386.0484,437.99524C385.96036,438.70996,385.97073,438.9016,386.11575,439.52832C386.3281,440.4192,386.48868,440.85425,386.99625,441.8694C387.6333,443.14868,387.66956,443.25232,387.66956,444.01886C387.66956,444.5368,387.64883,444.69733,387.55045,444.98743C387.4831,445.1842,387.4106,445.3396,387.3847,445.3396C387.3588,445.3396,387.21378,445.19458,387.05838,445.0133C386.9082,444.83722,385.94482,443.72363,384.92447,442.54272C383.89896,441.36182,382.87863,440.1809,382.64554,439.92712C381.10208,438.1869,380.32516,437.29083,380.0196,436.88684C379.7244,436.49835,379.6674,436.3896,379.6674,436.2187C379.6674,436.01672,379.60007,435.89758,379.1132,435.31232C378.8853,435.02747,378.50723,434.84613,378.00998,434.77362C377.79764,434.73737,377.41437,434.68042,377.16058,434.63898C376.49762,434.5354,376.31116,434.54572,375.99002,434.7063C375.58603,434.9135,375.4514,435.19836,375.34262,436.08917C375.15616,437.56018,375.41513,438.51837,376.51834,440.36737C377.74585,442.43915,377.99445,442.96747,378.22754,444.03442C378.37772,444.7077,378.39328,445.94562,378.2586,446.38068C378.12393,446.81055,377.87534,447.14203,377.5594,447.3233C377.31595,447.45282,377.21237,447.4787,376.65298,447.51495C375.4928,447.59784,375.15616,447.7273,372.3023,449.219C371.91385,449.42096,371.572,449.58673,371.5461,449.58673C371.51505,449.58673,371.4788,449.4417,371.45807,449.26044C371.3752,448.4887,371.20425,447.82056,370.87796,446.9452C370.45328,445.80573,370.26163,445.438,369.92496,445.091C369.68155,444.83722,369.3397,444.6145,369.19986,444.6145C369.16876,444.6145,369.06,444.542,368.95642,444.45392C368.8528,444.36072,368.64566,444.2364,368.49545,444.16907C368.28827,444.0758,368.21576,444.01367,368.18985,443.9101C368.16916,443.8324,368.16916,443.1953,368.18985,442.4961C368.24167,440.42438,368.1329,439.68372,367.5839,438.54425C367.08148,437.498,366.6982,436.90753,366.06113,436.22388C365.90576,436.05298,365.7918,435.8924,365.80734,435.86652C365.8488,435.80432,366.2217,435.8872,366.38742,435.99597C366.45993,436.0478,366.65158,436.08405,366.85876,436.09436C367.49582,436.1203,368.252,436.3896,369.6194,437.08362C371.00745,437.78284,371.51505,437.98486,373.29675,438.55975C373.90793,438.7566,374.51907,438.96375,374.65375,439.02594C374.92825,439.1554,375.07327,439.12952,375.0474,438.95856C375.03702,438.87054,374.91272,438.77734,374.5398,438.57532C374.2601,438.4251,373.28122,437.75177,372.2764,437.01117C371.29752,436.2964,369.9716,435.35376,369.32416,434.92383C368.67154,434.48877,367.86874,433.93457,367.53726,433.69116C367.03485,433.31824,366.92093,433.20947,366.8484,433.0282C366.69302,432.63458,366.0663,432.0907,365.6416,431.98193C365.3671,431.9146,364.86987,431.89392,364.11887,431.925 Z M378.85425,439.19684C379.0873,439.2901,379.35666,439.3885,379.44467,439.40918C379.70883,439.4662,380.175,439.8391,381.273,440.88013C383.54678,443.03998,385.00217,444.26746,386.34882,445.15833C386.61813,445.3344,386.88748,445.53125,386.93927,445.59338C387.0377,445.70215,387.0377,445.70215,386.84604,445.77985C386.53528,445.9093,386.35916,445.93005,386.0536,445.85754C385.82053,445.8006,385.65994,445.8006,385.1679,445.85236C384.16312,445.96112,383.16867,446.3496,381.99814,447.0902C381.6045,447.33887,381.5009,447.38544,381.49054,447.3181C381.44913,447.11615,380.98813,445.7384,380.7965,445.2619C380.54272,444.6352,379.92636,442.96747,379.6881,442.26825C379.46542,441.6156,379.27377,441.26343,378.75064,440.52277C378.33112,439.9375,378.00998,439.39886,378.00998,439.2849C378.00998,439.19165,378.212,439.02075,378.32593,439.02075C378.3829,439.02075,378.62115,439.09845,378.85425,439.19684 Z M366.75516,452.91705C366.81216,452.9533,366.96753,453.1087,367.09702,453.2641L367.33008,453.54895L367.13327,454.1446C367.01932,454.48126,366.89502,454.98364,366.85358,455.30994C366.80698,455.62067,366.69302,456.10242,366.60495,456.3769C366.44443,456.84302,366.42886,456.87408,366.3201,456.8327C366.11295,456.755,366.03525,456.56335,366.0715,456.23187C366.1492,455.53265,366.21133,455.13385,366.3149,454.7713C366.3926,454.47607,366.41333,454.25854,366.40817,453.78717C366.3926,452.89117,366.4496,452.74615,366.75516,452.91705 Z M385.30777,454.43982C385.30777,454.80756,385.3181,455.39795,385.33884,455.75537L385.3751,456.40796L385.1731,456.43903C384.8157,456.50122,384.27707,456.48047,384.19937,456.40277C384.14758,456.351,384.0647,456.34583,383.87827,456.3769C383.7436,456.39758,383.57785,456.40277,383.51053,456.38727C383.2567,456.33026,382.97186,455.48602,382.89417,454.56927C382.8579,454.1601,382.8372,454.18604,383.2153,454.17047C383.32922,454.16528,383.7384,454.07727,384.12167,453.97363C384.50494,453.87006,384.92966,453.78717,385.06433,453.78204L385.31296,453.78204L385.30777,454.43982 Z M374.42587,459.33954C374.59158,459.95068,374.63303,460.22003,374.55017,460.12158C374.52426,460.0957,374.37405,459.7849,374.2187,459.42755C373.8872,458.6869,373.62305,457.90997,373.6904,457.88928C373.71628,457.8789,373.84058,457.8012,373.97006,457.71838L374.20316,457.563L374.23422,458.14825C374.25494,458.56262,374.31192,458.90442,374.42587,459.33954 Z"/> </g> </g> </svg>